<svg xmlns="http://www.w3.org/2000/svg" width="34.333" height="26.698" viewBox="0 0 34.333 26.698">
  <path id="cardio" d="M31.812,5.139H29.707C32.753-1.2,29.294-7.5,23.574-8.781a.5.5,0,0,0-.6.38.5.5,0,0,0,.38.6c5.209,1.171,8.363,7.074,5.238,12.938H26.726l-1.739-3.5a.5.5,0,0,0-.929.069l-1.6,4.975-1.8-4.109a.5.5,0,1,0-.921.4l2.333,5.323A.5.5,0,0,0,23,8.258L24.636,3.2l1.328,2.669a.5.5,0,0,0,.451.279H27.98c-3.2,4.868-10.142,8.581-12.831,10.443C10.86,13.809,5.173,10.482,2.317,6.145H4.755a.5.5,0,0,0,.452-.283L7.355,1.443l2.691,7.9A.5.5,0,0,0,11,9.319l2.129-7.2,1.919,3.226a.5.5,0,0,0,.9-.068l2.3-5.67.687,1.567a.5.5,0,1,0,.921-.4L18.694-1.889a.5.5,0,0,0-.927.013L15.4,3.961,13.408.615a.5.5,0,0,0-.914.115L10.488,7.518,7.913-.038A.5.5,0,0,0,6.985-.1L4.441,5.139H1.706C-1.828-1.494,2.668-8,8.776-8a8.244,8.244,0,0,1,6.009,2.568.5.5,0,0,0,.727,0,8.306,8.306,0,0,1,5.216-2.531.5.5,0,0,0,.454-.548.5.5,0,0,0-.548-.453A9.31,9.31,0,0,0,15.149-6.49,9.232,9.232,0,0,0,8.776-9.008C2.16-9.008-2.9-2.115.59,5.139H-1.515a.5.5,0,0,0-.5.5.5.5,0,0,0,.5.5H1.138c2.894,4.861,9.006,8.4,13.738,11.464a.5.5,0,0,0,.545,0c4.726-3.062,10.844-6.6,13.738-11.464h2.653a.5.5,0,0,0,0-1.006Zm0,0" transform="translate(2.018 9.008)" fill="#fff"/>
</svg>
