<svg xmlns="http://www.w3.org/2000/svg" width="26.346" height="20.536" viewBox="0 0 26.346 20.536">
  <g id="test" transform="translate(-2.752 -9.876)">
    <g id="Groupe_28" data-name="Groupe 28" transform="translate(2.752 11.421)">
      <g id="Groupe_27" data-name="Groupe 27" transform="translate(0)">
        <path id="Tracé_64" data-name="Tracé 64" d="M135.146,213.911H119.925a.77.77,0,1,0,0,1.541h15.221a.77.77,0,1,0,0-1.541Z" transform="translate(-119.155 -213.911)" fill="#819fab"/>
      </g>
    </g>
    <g id="Groupe_30" data-name="Groupe 30" transform="translate(22.71 9.876)">
      <g id="Groupe_29" data-name="Groupe 29">
        <path id="Tracé_65" data-name="Tracé 65" d="M338.66,198.955a.771.771,0,0,0-1.052-.284L334,200.745l.331-1.2a.77.77,0,1,0-1.485-.41l-.422,1.528a1.4,1.4,0,0,0,.493,1.48,1.426,1.426,0,0,0,1.557.107l3.9-2.243A.77.77,0,0,0,338.66,198.955Z" transform="translate(-332.376 -198.569)" fill="#819fab"/>
      </g>
    </g>
    <g id="Groupe_32" data-name="Groupe 32" transform="translate(2.752 16.992)">
      <g id="Groupe_31" data-name="Groupe 31" transform="translate(0)">
        <path id="Tracé_66" data-name="Tracé 66" d="M135.146,271.088H119.925a.77.77,0,1,0,0,1.541h15.221a.77.77,0,1,0,0-1.541Z" transform="translate(-119.155 -271.088)" fill="#819fab"/>
      </g>
    </g>
    <g id="Groupe_34" data-name="Groupe 34" transform="translate(22.71 15.432)">
      <g id="Groupe_33" data-name="Groupe 33">
        <path id="Tracé_67" data-name="Tracé 67" d="M338.66,256.133a.77.77,0,0,0-1.052-.284L334,257.923l.331-1.2a.77.77,0,0,0-1.485-.41l-.422,1.528a1.4,1.4,0,0,0,.493,1.48,1.422,1.422,0,0,0,1.557.107l3.9-2.243A.771.771,0,0,0,338.66,256.133Z" transform="translate(-332.376 -255.746)" fill="#819fab"/>
      </g>
    </g>
    <g id="Groupe_36" data-name="Groupe 36" transform="translate(2.752 22.562)">
      <g id="Groupe_35" data-name="Groupe 35" transform="translate(0)">
        <path id="Tracé_68" data-name="Tracé 68" d="M135.146,328.265H119.925a.77.77,0,1,0,0,1.541h15.221a.77.77,0,1,0,0-1.541Z" transform="translate(-119.155 -328.265)" fill="#819fab"/>
      </g>
    </g>
    <g id="Groupe_38" data-name="Groupe 38" transform="translate(22.71 20.988)">
      <g id="Groupe_37" data-name="Groupe 37">
        <path id="Tracé_69" data-name="Tracé 69" d="M338.66,313.309a.77.77,0,0,0-1.052-.284L334,315.1l.331-1.2a.77.77,0,0,0-1.485-.41l-.422,1.528a1.4,1.4,0,0,0,2.049,1.588l3.9-2.243A.77.77,0,0,0,338.66,313.309Z" transform="translate(-332.376 -312.923)" fill="#819fab"/>
      </g>
    </g>
    <g id="Groupe_40" data-name="Groupe 40" transform="translate(2.752 28.133)">
      <g id="Groupe_39" data-name="Groupe 39" transform="translate(0)">
        <path id="Tracé_70" data-name="Tracé 70" d="M135.146,385.442H119.925a.77.77,0,1,0,0,1.541h15.221a.77.77,0,1,0,0-1.541Z" transform="translate(-119.155 -385.442)" fill="#819fab"/>
      </g>
    </g>
    <g id="Groupe_42" data-name="Groupe 42" transform="translate(22.71 26.545)">
      <g id="Groupe_41" data-name="Groupe 41">
        <path id="Tracé_71" data-name="Tracé 71" d="M338.66,370.486a.77.77,0,0,0-1.052-.284L334,372.276l.331-1.2a.77.77,0,0,0-1.485-.41l-.422,1.528a1.4,1.4,0,0,0,2.049,1.587l3.9-2.243A.77.77,0,0,0,338.66,370.486Z" transform="translate(-332.376 -370.1)" fill="#819fab"/>
      </g>
    </g>
  </g>
</svg>
