<svg xmlns="http://www.w3.org/2000/svg" width="16.333" height="21.794" viewBox="0 0 16.333 21.794">
  <g id="notepad" transform="translate(-11 -252.545)">
    <path id="Tracé_200" data-name="Tracé 200" d="M9.94,1.48h-3.5a2.482,2.482,0,0,0-4.541,0h-3.5A2.4,2.4,0,0,0-4,3.873V19.4a2.4,2.4,0,0,0,2.393,2.394H9.94A2.4,2.4,0,0,0,12.333,19.4V3.873A2.4,2.4,0,0,0,9.94,1.48ZM2.29,2.569a.545.545,0,0,0,.532-.428,1.385,1.385,0,0,1,2.689,0,.545.545,0,0,0,.532.428h1.08v.478a1.305,1.305,0,0,1-1.3,1.3H2.514a1.305,1.305,0,0,1-1.3-1.3V2.569ZM11.244,19.4a1.305,1.305,0,0,1-1.3,1.3H-1.606a1.305,1.305,0,0,1-1.3-1.3V3.873a1.305,1.305,0,0,1,1.3-1.3H.12v.478A2.4,2.4,0,0,0,2.514,5.441H5.82A2.4,2.4,0,0,0,8.213,3.048V2.569H9.94a1.305,1.305,0,0,1,1.3,1.3Zm0,0" transform="translate(15 252.545)" fill="#fff"/>
    <path id="Tracé_201" data-name="Tracé 201" d="M106.578,227.6,103,231.089l-1.816-1.773a.545.545,0,0,0-.769.772l.007.007,2.2,2.145a.545.545,0,0,0,.761,0l3.957-3.864a.545.545,0,0,0-.761-.78Zm0,0" transform="translate(-84.974 33.526)" fill="#fff"/>
  </g>
</svg>
