<svg id="search" xmlns="http://www.w3.org/2000/svg" width="19" height="19" viewBox="0 0 19 19">
  <g id="Groupe_81" data-name="Groupe 81" transform="translate(2.857 4.118)">
    <g id="Groupe_80" data-name="Groupe 80">
      <path id="Tracé_138" data-name="Tracé 138" d="M79.367,111.181a.7.7,0,0,0-.993,0A4.8,4.8,0,0,0,77,115.07a.7.7,0,0,0,.7.632c.023,0,.047,0,.07,0a.7.7,0,0,0,.629-.768,3.4,3.4,0,0,1,.968-2.756A.7.7,0,0,0,79.367,111.181Z" transform="translate(-76.978 -110.975)" fill="#fff"/>
    </g>
  </g>
  <g id="Groupe_83" data-name="Groupe 83">
    <g id="Groupe_82" data-name="Groupe 82">
      <path id="Tracé_139" data-name="Tracé 139" d="M8.026,0a8.026,8.026,0,1,0,8.026,8.026A8.035,8.035,0,0,0,8.026,0Zm0,14.648a6.622,6.622,0,1,1,6.622-6.622A6.629,6.629,0,0,1,8.026,14.648Z" fill="#fff"/>
    </g>
  </g>
  <g id="Groupe_85" data-name="Groupe 85" transform="translate(12.495 12.495)">
    <g id="Groupe_84" data-name="Groupe 84">
      <path id="Tracé_140" data-name="Tracé 140" d="M343.008,342.016l-5.1-5.1a.7.7,0,1,0-.993.993l5.1,5.1a.7.7,0,0,0,.993-.993Z" transform="translate(-336.708 -336.709)" fill="#fff"/>
    </g>
  </g>
</svg>
