<svg xmlns="http://www.w3.org/2000/svg" width="30.6" height="14.912" viewBox="0 0 30.6 14.912"><g transform="translate(-36.175 -17.446)"><g transform="translate(36.175 17.446)"><g transform="translate(0)"><path d="M62.755,297.743H40.195a4.02,4.02,0,0,0,0,8.04h2.356l-.3.247A1.188,1.188,0,0,0,42.7,308.1l.158.041-.779,3.037a.7.7,0,0,0,.5.847l2.367.608a.7.7,0,0,0,.847-.5l.779-3.037.158.041a1.188,1.188,0,0,0,1.4-1.6l-.714-1.756H62.755a4.02,4.02,0,0,0,0-8.04Zm-19.746,9.812h0Zm3.324.042a.785.785,0,0,0-.956.565l-.757,2.95-1.019-.262.757-2.95a.785.785,0,0,0-.565-.956l-.352-.091,1.319-1.072.866-.7.286.7.774,1.9Zm12.928-3.206H46.847l-.287-.706a.7.7,0,0,0-1.084-.278l-1.212.985h-4.07a2.628,2.628,0,0,1,0-5.255H59.261v5.255Zm3.495,0h-2.1v-5.255h2.1a2.628,2.628,0,0,1,0,5.255Z" transform="translate(-36.175 -297.743)"/><path d="M407.266,329.055a.7.7,0,1,0-1.092.863l.469.593-.469.593a.7.7,0,0,0,1.092.863l.81-1.025a.7.7,0,0,0,0-.863Z" transform="translate(-380.282 -326.629)"/><path d="M96.272,346.463a.687.687,0,0,0,.064.12.709.709,0,0,0,.087.106.657.657,0,0,0,.106.086.711.711,0,0,0,.12.064.721.721,0,0,0,.13.04.674.674,0,0,0,.272,0,.7.7,0,0,0,.13-.04.716.716,0,0,0,.12-.064.689.689,0,0,0,.106-.086.665.665,0,0,0,.086-.106.687.687,0,0,0,.064-.12.705.705,0,0,0,.04-.13.687.687,0,0,0,.014-.136.7.7,0,0,0-.014-.136.739.739,0,0,0-.04-.13.707.707,0,0,0-.064-.12.663.663,0,0,0-.086-.106.741.741,0,0,0-.106-.087.714.714,0,0,0-.12-.064.7.7,0,0,0-.909.377.736.736,0,0,0-.04.13.7.7,0,0,0-.013.136.685.685,0,0,0,.013.136A.7.7,0,0,0,96.272,346.463Z" transform="translate(-92.04 -342.177)"/><path d="M149.453,346.462a.689.689,0,0,0,.064.12.714.714,0,0,0,.087.106.659.659,0,0,0,.106.086.7.7,0,0,0,.12.064.735.735,0,0,0,.13.04.694.694,0,0,0,.136.014.682.682,0,0,0,.136-.014.7.7,0,0,0,.13-.04.684.684,0,0,0,.12-.064.659.659,0,0,0,.106-.086.668.668,0,0,0,.086-.106.687.687,0,0,0,.064-.12.705.705,0,0,0,.04-.13.691.691,0,0,0,.014-.136.7.7,0,0,0-.014-.136.739.739,0,0,0-.04-.13.7.7,0,0,0-.064-.12.66.66,0,0,0-.086-.106.7.7,0,0,0-.628-.191.74.74,0,0,0-.13.04.7.7,0,0,0-.377.377.733.733,0,0,0-.04.13.694.694,0,0,0-.013.136.684.684,0,0,0,.013.136A.7.7,0,0,0,149.453,346.462Z" transform="translate(-141.519 -342.177)"/><path d="M202.633,346.462a.686.686,0,0,0,.064.12.668.668,0,0,0,.086.106.659.659,0,0,0,.106.086.685.685,0,0,0,.12.064.7.7,0,0,0,.13.04.666.666,0,0,0,.271,0,.7.7,0,0,0,.13-.04.684.684,0,0,0,.12-.064.66.66,0,0,0,.106-.086.67.67,0,0,0,.086-.106.686.686,0,0,0,.064-.12.7.7,0,0,0,.04-.13.69.69,0,0,0,.014-.136.7.7,0,0,0-.014-.136.683.683,0,0,0-.04-.13.7.7,0,0,0-.064-.12.662.662,0,0,0-.086-.106.7.7,0,0,0-.628-.191.73.73,0,0,0-.131.04.693.693,0,0,0-.225.151.659.659,0,0,0-.086.106.7.7,0,0,0-.064.12.686.686,0,0,0-.04.13.7.7,0,0,0-.014.136.689.689,0,0,0,.014.136A.653.653,0,0,0,202.633,346.462Z" transform="translate(-190.997 -342.177)"/><path d="M255.814,346.462a.683.683,0,0,0,.064.12.669.669,0,0,0,.086.106.658.658,0,0,0,.106.086.685.685,0,0,0,.12.064.7.7,0,0,0,.13.04.666.666,0,0,0,.271,0,.7.7,0,0,0,.13-.04.684.684,0,0,0,.12-.064.658.658,0,0,0,.106-.086.674.674,0,0,0,.086-.106.689.689,0,0,0,.064-.12.648.648,0,0,0,.04-.13.685.685,0,0,0,.014-.136.694.694,0,0,0-.014-.136.677.677,0,0,0-.04-.13.7.7,0,0,0-.064-.12.666.666,0,0,0-.086-.106.694.694,0,0,0-.758-.151.689.689,0,0,0-.12.064.7.7,0,0,0-.106.087.661.661,0,0,0-.086.106.7.7,0,0,0-.064.12.735.735,0,0,0-.04.13.7.7,0,0,0-.014.136.689.689,0,0,0,.014.136A.7.7,0,0,0,255.814,346.462Z" transform="translate(-240.477 -342.177)"/><path d="M308.994,346.456a.693.693,0,0,0,.064.12.665.665,0,0,0,.086.106.656.656,0,0,0,.106.086.682.682,0,0,0,.12.064.711.711,0,0,0,.13.04.689.689,0,0,0,.136.014.7.7,0,0,0,.136-.014.746.746,0,0,0,.13-.04.7.7,0,0,0,.12-.064.662.662,0,0,0,.106-.086.715.715,0,0,0,.087-.106.687.687,0,0,0,.064-.12.711.711,0,0,0,.04-.13.688.688,0,0,0,.013-.136.7.7,0,0,0-.013-.136.742.742,0,0,0-.04-.13.7.7,0,0,0-.064-.12.706.706,0,0,0-.087-.106.722.722,0,0,0-.106-.087.713.713,0,0,0-.12-.064.741.741,0,0,0-.13-.04.688.688,0,0,0-.272,0,.706.706,0,0,0-.13.04.694.694,0,0,0-.12.064.715.715,0,0,0-.106.087.658.658,0,0,0-.086.106.7.7,0,0,0-.064.12.734.734,0,0,0-.04.13.694.694,0,0,0-.014.136.684.684,0,0,0,.014.136A.7.7,0,0,0,308.994,346.456Z" transform="translate(-289.955 -342.17)"/></g></g></g></svg>