<svg xmlns="http://www.w3.org/2000/svg" width="25" height="25" viewBox="0 0 25 25"><g transform="translate(0)"><path d="M412,126.488a.488.488,0,1,0,.488-.488A.489.489,0,0,0,412,126.488Zm0,0" transform="translate(-391.883 -119.848)"/><path d="M433.614,164.913a9.3,9.3,0,0,1-.186,1.855.488.488,0,0,0,.381.576.481.481,0,0,0,.1.01.489.489,0,0,0,.478-.391,10.275,10.275,0,0,0,.206-2.051,10.143,10.143,0,0,0-.991-4.4.488.488,0,1,0-.882.42A9.175,9.175,0,0,1,433.614,164.913Zm0,0" transform="translate(-411.543 -152.413)"/><path d="M201.371,212.836h-.488v-6.348a.488.488,0,0,0-.488-.488h-3.906a.488.488,0,0,0-.488.488v1.953a.488.488,0,0,0,.488.488h.488v3.906h-.488a.488.488,0,0,0-.488.488v1.953a.488.488,0,0,0,.488.488h4.883a.488.488,0,0,0,.488-.488v-1.953A.488.488,0,0,0,201.371,212.836Zm-.488,1.953h-3.906v-.977h.488a.488.488,0,0,0,.488-.488v-4.883a.488.488,0,0,0-.488-.488h-.488v-.977h2.93v6.348a.488.488,0,0,0,.488.488h.488Zm0,0" transform="translate(-186.43 -195.941)"/><path d="M217.953,109.906A1.953,1.953,0,1,0,216,107.953,1.955,1.955,0,0,0,217.953,109.906Zm0-2.93a.977.977,0,1,1-.977.977A.978.978,0,0,1,217.953,106.977Zm0,0" transform="translate(-205.453 -100.824)"/><path d="M12.5,0A12.712,12.712,0,0,0,0,12.5a13.315,13.315,0,0,0,1.774,6.611L.025,24.358a.488.488,0,0,0,.618.617l5.247-1.749A13.312,13.312,0,0,0,12.5,25,12.712,12.712,0,0,0,25,12.5,12.712,12.712,0,0,0,12.5,0Zm0,24.024a12.213,12.213,0,0,1-6.287-1.745.488.488,0,0,0-.416-.051L1.26,23.74,2.772,19.2a.488.488,0,0,0-.051-.416A12.213,12.213,0,0,1,.976,12.5,11.678,11.678,0,0,1,12.5.977,11.678,11.678,0,0,1,24.023,12.5,11.678,11.678,0,0,1,12.5,24.024Zm0,0" transform="translate(0)"/></g></svg>