<svg xmlns="http://www.w3.org/2000/svg" width="23.563" height="17.341" viewBox="0 0 23.563 17.341"><defs><style>.a{fill:#fff;}</style></defs><g transform="translate(23.229 59.64) rotate(180)"><path class="a" d="M3.049,109.465H13.395a.893.893,0,0,0,0-1.786H3.049L4.2,106.525a.893.893,0,0,0-1.263-1.263L.262,107.941c-.021.021-.04.042-.059.065l-.013.017c-.014.017-.027.035-.039.053l-.01.016c-.012.019-.024.039-.035.059l-.006.012c-.011.022-.022.044-.032.067l0,.009c-.01.024-.019.048-.026.073l0,.01c-.007.025-.014.049-.019.075,0,.008,0,.015,0,.023s-.007.042-.009.064a.88.88,0,0,0,0,.178c0,.022.006.043.01.064s0,.015,0,.022c.005.026.012.051.019.076l0,.009c.008.025.017.05.026.074l0,.008c.01.023.02.045.032.067l.006.012c.011.02.023.04.035.059l.01.016c.012.018.026.036.039.053l.013.017c.019.023.038.044.059.065l2.679,2.679A.893.893,0,0,0,4.2,110.62Z" transform="translate(-0.333 -57.603)"/><path class="a" d="M110.226,42.3a8.664,8.664,0,0,0-7.2,3.839,1.06,1.06,0,0,0,1.76,1.182,6.551,6.551,0,1,1,.009,7.311,1.06,1.06,0,0,0-1.757,1.187A8.671,8.671,0,1,0,110.226,42.3Z" transform="translate(-95.668 0)"/></g></svg>