<svg xmlns="http://www.w3.org/2000/svg" width="22" height="22" viewBox="0 0 22 22">
  <path id="settings" d="M21.482,8.495l-1.691-.368a9.2,9.2,0,0,0-.544-1.312l.936-1.456a.658.658,0,0,0-.088-.82L17.461,1.9a.658.658,0,0,0-.82-.088l-1.456.936a9.2,9.2,0,0,0-1.312-.544L13.5.517A.657.657,0,0,0,12.862,0H9.137a.657.657,0,0,0-.642.518L8.127,2.208a9.2,9.2,0,0,0-1.312.544L5.359,1.816a.658.658,0,0,0-.82.088L1.9,4.539a.658.658,0,0,0-.088.82l.936,1.456a9.2,9.2,0,0,0-.544,1.312L.518,8.495A.657.657,0,0,0,0,9.137v3.725a.657.657,0,0,0,.518.642l1.691.368a9.2,9.2,0,0,0,.544,1.312l-.936,1.456a.658.658,0,0,0,.088.82L4.539,20.1a.658.658,0,0,0,.82.088l1.456-.936a9.2,9.2,0,0,0,1.312.544l.368,1.691A.657.657,0,0,0,9.137,22h3.725a.657.657,0,0,0,.642-.518l.368-1.691a9.2,9.2,0,0,0,1.312-.544l1.456.936a.657.657,0,0,0,.82-.088L20.1,17.461a.658.658,0,0,0,.088-.82l-.936-1.456a9.2,9.2,0,0,0,.544-1.312l1.691-.368A.657.657,0,0,0,22,12.862V9.137A.657.657,0,0,0,21.482,8.495ZM14.944,11A3.944,3.944,0,1,1,11,7.056,3.949,3.949,0,0,1,14.944,11Zm0,0" transform="translate(0 0)"/>
</svg>
